<svg width="128" height="128" viewBox="0 0 128 128" preserveAspectRatio="none" fill="none" xmlns="http://www.w3.org/2000/svg">
<rect width="128" height="128" rx="4" fill="#F98E40"/>
<path d="M75.9373 60.7714C76.4367 57.4333 73.8951 55.6389 70.4198 54.4418L71.5471 49.9199L68.7947 49.2339L67.6971 53.6366C66.9735 53.4563 66.2303 53.2862 65.4919 53.1177L66.5972 48.686L63.8463 48L62.7182 52.5203C62.1193 52.3839 61.5313 52.249 60.9606 52.1071L60.9637 52.093L57.1678 51.1452L56.4356 54.0851C56.4356 54.0851 58.4778 54.5531 58.4347 54.5821C59.5495 54.8604 59.751 55.5981 59.7172 56.1829L58.4331 61.3343C58.51 61.3539 58.6095 61.3821 58.7193 61.426C58.6276 61.4033 58.5296 61.3782 58.4284 61.3539L56.6285 68.5702C56.4921 68.9089 56.1463 69.4169 55.3671 69.224C55.3945 69.264 53.3664 68.7246 53.3664 68.7246L52 71.8754L55.5819 72.7683C56.2483 72.9352 56.9013 73.1101 57.5441 73.2747L56.4051 77.8483L59.1544 78.5343L60.2825 74.0093C61.0335 74.2131 61.7626 74.4013 62.476 74.5784L61.3518 79.0822L64.1043 79.7682L65.2434 75.2032C69.9369 76.0915 73.4663 75.7332 74.9519 71.4881C76.149 68.07 74.8923 66.0984 72.4228 64.8127C74.2212 64.398 75.5759 63.215 75.9373 60.7714V60.7714ZM69.6484 69.5901C68.7978 73.0082 63.0428 71.1604 61.177 70.6971L62.6884 64.6379C64.5543 65.1035 70.5374 66.0255 69.6484 69.5901ZM70.4998 60.722C69.7236 63.8312 64.9337 62.2515 63.3799 61.8642L64.7502 56.3687C66.304 56.756 71.308 57.4788 70.4998 60.722Z" fill="white" fill-opacity="0.7"/>
</svg>
