<svg width="513" height="513" viewBox="0 0 513 513" fill="none" xmlns="http://www.w3.org/2000/svg">
<style>
.icon-color { fill: #000000; }
@media (prefers-color-scheme: dark) {
  .icon-color { fill: #ffffff; }
}
</style>
<path d="M247.634 122.758C247.634 147.519 238.15 162.538 219.182 171.468C198.239 181.21 184.804 197.853 178.876 220.584C172.159 245.751 153.981 260.364 129.481 259.552C109.723 259.146 94.7075 249.404 86.014 231.138C79.2963 216.931 70.6028 204.753 56.7723 197.041C50.4497 193.388 43.732 190.952 36.6192 188.923C16.4661 183.24 1.84525 166.597 0.264615 145.896C-1.71118 121.135 7.37747 103.274 27.5305 93.1266C49.6594 82.5728 63.49 65.1184 69.4173 41.1695C75.3447 16.8145 95.8929 2.60752 122.369 4.6371C137.385 5.85484 148.844 13.5672 157.538 25.7447C163.465 34.2689 168.602 43.199 174.529 51.3173C181.642 61.4652 191.126 67.9598 202.586 72.019C208.118 74.0486 214.045 76.0781 219.182 78.9195C238.15 88.6615 247.634 104.492 247.634 122.758Z" class="icon-color" />
<path d="M512.01 355.757C511.615 372.806 503.712 387.824 486.325 396.349C463.406 407.714 449.18 425.981 442.067 450.335C435.745 471.037 419.543 484.026 398.6 485.65C377.657 487.274 359.084 476.72 350.391 457.236C340.512 434.505 323.915 420.704 300.601 414.209C258.714 403.249 254.762 350.48 279.262 328.561C283.609 324.908 288.351 321.254 293.488 318.819C314.036 308.671 327.076 292.029 333.399 270.109C338.931 250.219 350.786 236.824 370.939 232.765C393.858 228.3 415.197 235.2 426.261 259.555C436.535 282.287 453.132 295.682 476.446 302.582C500.551 309.889 512.01 326.937 512.01 355.757Z" class="icon-color" />
<path d="M463.786 51.3199C462.6 58.2204 461.415 65.121 459.439 71.6156C453.117 93.1291 454.697 113.425 466.157 132.909C476.431 150.363 476.036 168.629 465.762 185.678C455.883 202.32 440.472 210.033 421.899 210.033C417.157 210.033 412.415 208.815 408.069 207.191C384.359 199.073 361.44 200.697 339.706 214.498C310.069 233.17 271.739 206.379 268.973 178.371C268.182 169.441 268.182 160.511 271.344 152.393C280.037 130.067 276.481 109.366 266.997 89.07C262.65 80.1398 259.094 70.8038 259.094 60.6559C259.489 27.3709 290.311 3.42188 321.529 11.9461C331.408 14.7875 341.287 18.4407 351.956 18.4407C364.206 18.4407 374.875 14.3816 385.94 9.10469C393.052 5.45146 400.956 2.20414 408.859 0.580478C434.544 -3.88459 461.02 18.0348 462.996 44.8252C462.996 47.2607 463.391 49.2903 463.391 51.7258C463.391 51.3199 463.786 51.3199 463.786 51.3199Z" class="icon-color" />
<path d="M235.757 342.773C234.571 349.268 233.781 356.168 231.805 362.663C225.483 384.176 227.063 404.878 238.523 424.362C257.095 456.429 237.337 498.239 197.822 501.486C192.684 501.892 187.152 500.674 182.015 499.05C157.515 490.526 134.201 491.744 112.072 505.951C82.8304 524.217 44.8952 497.833 41.7339 470.636C40.9436 461.706 40.5485 453.182 43.7097 444.658C52.4032 421.521 48.8468 399.601 38.1775 378.088C33.0405 367.94 30.2743 356.98 31.4598 345.209C33.8308 322.883 53.9839 302.587 76.1127 300.964C84.4111 300.558 92.3142 301.37 99.8222 304.211C120.766 312.329 140.524 309.488 159.886 298.528C174.507 290.004 190.314 286.757 206.12 294.469C224.692 304.617 234.966 320.448 235.757 342.773Z" class="icon-color" />
</svg>
