<svg width="202" height="120" viewBox="0 0 202 120" fill="none" xmlns="http://www.w3.org/2000/svg">
<path d="M202 63.0346C201.753 63.2833 201.852 63.6316 201.802 63.9301C201.061 68.0595 197.254 70.8953 193.101 70.348C192.805 70.2983 192.607 70.2485 192.459 70.6466C191.618 73.0844 190.728 75.5222 189.839 78.0595C193.003 78.0595 196.068 78.0595 199.281 78.0595C198.342 79.8008 197.452 81.3929 196.562 83.0347C195.82 84.3282 195.128 85.6218 194.535 87.0148C193.991 88.2088 194.09 89.4029 194.782 90.4974C196.166 92.6367 197.155 94.8756 196.957 97.5124C196.809 99.3532 196.166 101.094 195.227 102.637C194.337 104.08 194.387 105.423 195.029 106.915C196.216 109.503 197.748 111.891 199.034 114.428C199.133 114.577 199.281 114.726 199.281 114.975C190.283 114.975 181.236 114.975 172.14 114.975C172.387 114.478 172.634 114.03 172.882 113.532C174.315 110.896 175.65 108.209 177.183 105.622C177.825 104.527 177.875 103.333 177.529 102.189C176.837 99.8507 176.589 97.4626 176.886 94.9751C177.034 93.6815 177.38 92.4377 177.776 91.1939C178.221 89.8009 178.023 88.6069 177.232 87.3631C175.403 84.4277 173.92 81.2934 172.239 78.2585C172.239 78.2088 172.239 78.2088 172.239 78.1093C174.76 78.1093 177.282 78.1093 179.852 78.1093C179.457 76.0197 179.111 73.9799 178.765 71.9898C178.666 71.4923 178.715 70.8953 178.419 70.5471C178.122 70.1988 177.529 70.4476 177.084 70.3978C172.684 69.8008 169.817 66.4674 170.014 62.0395C170.212 57.7112 174.118 54.3778 178.419 54.7758C179.407 54.8753 180.347 55.1241 181.236 55.5718C181.484 55.7211 181.632 55.6713 181.879 55.5718C184.45 54.328 186.971 54.328 189.443 55.8206C189.74 56.0196 189.937 55.9201 190.185 55.7709C194.585 53.333 200.072 55.5718 201.456 60.3977C201.654 60.9948 201.753 61.6415 201.852 62.2883C202 62.4375 202 62.7361 202 63.0346ZM175.7 80.0994C175.65 80.2486 175.749 80.3481 175.798 80.4476C176.787 82.3382 177.726 84.3282 178.913 86.1193C180.248 88.0596 180.347 90.0497 179.654 92.2387C178.666 95.1741 178.567 98.2089 179.457 101.194C180.05 103.134 180.001 105.025 178.913 106.816C177.875 108.507 176.935 110.299 176.046 112.09C175.897 112.388 175.7 112.637 175.65 112.985C182.324 112.985 188.949 112.985 195.623 112.985C196.068 112.985 196.117 112.886 195.87 112.537C195.079 111.194 194.337 109.851 193.645 108.458C192.953 107.065 192.459 105.672 192.656 104.08C192.805 102.935 193.398 102.04 193.892 101.094C194.733 99.4527 195.326 97.7611 195.029 95.8706C194.782 94.2288 194.041 92.8357 193.151 91.4924C192.113 89.8506 191.964 88.1093 192.706 86.3183C193.497 84.3282 194.634 82.4874 195.623 80.5969C195.722 80.4476 195.87 80.2984 195.82 80.0496C189.097 80.0993 182.423 80.0994 175.7 80.0994ZM179.704 62.4873C179.704 65.8207 182.275 68.4077 185.587 68.4077C188.899 68.4077 191.519 65.7709 191.519 62.4873C191.519 59.2535 188.8 56.5171 185.587 56.5171C182.324 56.5171 179.704 59.154 179.704 62.4873ZM191.322 67.761C192.607 68.4575 193.892 68.7062 195.277 68.358C197.551 67.8107 199.133 66.4674 199.775 64.1789C200.418 61.7908 199.825 59.6017 197.897 58.0097C196.068 56.4674 193.991 56.2186 191.816 57.0644C191.47 57.2136 191.421 57.3131 191.668 57.6117C192.953 59.2535 193.497 61.144 193.299 63.2336C193.2 64.9251 192.508 66.4177 191.322 67.761ZM180.05 68.0595C178.616 66.5172 177.825 64.7261 177.776 62.5868C177.776 60.4475 178.517 58.6067 179.951 57.0146C177.282 56.0694 174.513 56.9649 172.98 59.2037C171.448 61.3928 171.646 64.3281 173.376 66.4674C175.007 68.358 177.776 69.0545 180.05 68.0595ZM184.845 74.2287C184.845 73.0844 184.845 71.9401 184.845 70.7461C184.845 70.3978 184.796 70.2486 184.45 70.1988C183.609 70.0993 182.818 69.8008 182.027 69.4525C181.83 69.353 180.495 69.8505 180.396 70.0495C180.396 70.0993 180.396 70.1988 180.396 70.2983C180.841 72.7859 181.286 75.2734 181.731 77.7113C181.78 78.0098 181.879 78.0595 182.176 78.0595C182.917 78.0595 183.659 78.0098 184.45 78.0595C184.796 78.0595 184.845 77.96 184.845 77.6118C184.845 76.4675 184.845 75.3729 184.845 74.2287ZM186.724 74.1292C186.724 75.2237 186.724 76.368 186.724 77.4625C186.724 77.6615 186.526 78.0595 186.971 78.0595C187.317 78.0595 187.812 78.3581 188.009 77.6615C188.85 75.174 189.74 72.6864 190.63 70.1988C190.679 69.9998 190.976 69.751 190.63 69.6018C190.283 69.4525 190.036 68.955 189.492 69.3033C188.8 69.751 187.96 70.0495 187.119 70.1988C186.773 70.2486 186.724 70.3978 186.724 70.6963C186.724 71.7908 186.724 72.9849 186.724 74.1292Z" fill="black"/>
<path d="M0.0988727 76.6171C0.346058 76.4678 0.197749 76.219 0.197749 76.02C0.34606 69.7016 0.444932 63.4329 0.593244 57.1144C0.642681 55.3234 0.69212 53.5323 0.69212 51.7413C0.69212 51.4925 0.741557 51.2438 0.741557 50.8955C2.42242 51.8905 4.05384 52.8856 5.63583 53.8309C6.9212 54.6269 8.20656 55.3732 9.5908 55.9702C11.0245 56.6169 12.5076 56.7164 13.9907 56.1692C17.3524 54.9254 20.6153 55.1244 23.7298 56.8657C24.8669 57.5125 25.9545 57.5125 27.141 56.9652C30.5027 55.4229 33.7161 53.5323 37.0284 51.8408C37.1273 51.791 37.2261 51.7413 37.4239 51.6418C37.2261 60.7961 37.0284 69.8508 36.8306 78.9554C36.6329 79.1046 36.534 78.9056 36.3857 78.8559C33.5678 77.2141 30.651 75.7713 27.8825 74.03C26.4488 73.1344 25.6084 73.1842 24.2736 74.229C22.3456 75.7713 20.1703 76.617 17.6985 76.4678C15.721 76.3683 13.9907 75.622 12.4087 74.428C12.211 74.2787 11.9638 74.0797 11.766 73.9305C10.7773 73.1842 9.73911 73.0847 8.65149 73.7315C6.03133 75.3235 3.26285 76.6171 0.543807 78.0598C0.395496 78.1594 0.197748 78.3086 0 78.2589C0.0988742 77.7116 0.0988727 77.1643 0.0988727 76.6171ZM34.952 75.7215C35.1003 68.8061 35.2487 61.9404 35.397 55.0249C35.1498 55.1741 34.952 55.2736 34.7543 55.3731C32.4307 56.6169 30.1566 57.9105 27.7342 58.9553C26.1522 59.6518 24.5208 59.602 22.9883 58.7563C20.3186 57.2637 17.5502 57.0149 14.7323 58.1095C12.6559 58.9055 10.6784 58.7065 8.70093 57.811C6.97063 57.0149 5.33921 56.0199 3.70778 55.0249C3.41116 54.8259 3.0651 54.6269 2.6696 54.4279C2.52129 61.3433 2.37298 68.1593 2.22467 75.025C4.00441 74.1295 5.68527 73.2837 7.31669 72.3384C8.10769 71.8409 8.94812 71.4429 9.88742 71.3931C11.2717 71.2936 12.4087 71.8907 13.4469 72.7364C15.2266 74.1792 17.2536 74.8758 19.5771 74.428C20.8625 74.1792 21.9995 73.5822 22.9883 72.7862C24.1747 71.8409 25.5095 71.2439 27.0915 71.5921C27.9814 71.7912 28.723 72.2389 29.5139 72.6867C31.2442 73.7315 33.0734 74.6767 34.952 75.7215Z" fill="black"/>
<path d="M79.6927 0C79.6927 0.0497515 79.6927 0.04975 79.6927 0.0995015C78.506 0.0995015 77.3193 0.0995015 76.1326 0.0995015C76.1326 0.04975 76.1326 0.0497515 76.1326 0C77.3193 0 78.506 0 79.6927 0Z" fill="#F2F2F2"/>
<path d="M136.99 119.95C136.397 119.95 135.804 119.95 135.21 120C133.727 119.95 132.195 119.95 130.712 119.9C124.829 119.851 118.946 119.751 113.063 119.701C109.404 119.652 105.795 119.602 102.137 119.602C97.9844 119.552 93.7822 119.502 89.6295 119.502C85.4768 119.452 81.2746 119.403 77.1219 119.403C72.0793 119.353 66.9873 119.303 61.9447 119.253C57.8909 119.204 53.837 119.104 49.7832 119.005C47.3608 118.955 44.9383 118.905 42.5159 118.507C42.071 118.457 42.0216 118.358 42.1204 117.91C44.5428 107.811 47.2619 97.7608 49.9315 87.711C54.0348 72.089 58.138 56.5168 62.2413 40.8948C65.3559 28.9545 68.4704 17.0141 71.6344 5.02398C71.8816 3.9792 72.2276 2.98417 72.8209 2.03889C73.6119 0.844853 74.7489 0.247834 76.1332 0.0488281C77.3196 0.0488281 78.5061 0.0488281 79.6926 0.0488281C82.6589 0.0985797 85.6251 0.148333 88.5913 0.198084C94.4743 0.247836 100.357 0.247839 106.24 0.247839C110.393 0.247839 114.546 0.297589 118.699 0.34734C122.505 0.397092 126.262 0.446842 130.069 0.446842C134.321 0.496593 138.523 0.546346 142.774 0.596098C148.41 0.645849 154.095 0.745349 159.731 0.795101C161.412 0.795101 163.093 0.844851 164.774 0.894603C164.724 0.994106 164.724 1.14337 164.675 1.24287C164.428 1.69063 164.576 2.08864 164.873 2.4369C165.169 2.68566 165.565 2.68566 165.911 2.48666C166.356 2.28765 166.306 1.83988 166.306 1.44187C166.306 1.29262 166.257 1.09361 166.208 0.944357C168.927 0.844854 171.646 1.14336 174.365 1.29262C174.711 1.29262 174.76 1.44187 174.661 1.79013C173.079 7.85982 171.547 13.9793 169.965 20.0489C164.972 39.1038 159.929 58.1089 154.936 77.1637C151.624 89.7011 148.361 102.288 145.098 114.875C144.801 116.069 144.356 117.263 143.565 118.258C142.675 119.303 141.588 119.851 140.253 119.95C139.116 119.95 138.078 119.95 136.99 119.95ZM172.239 3.18318C171.794 3.13342 171.398 3.08367 171.003 3.08367C167.987 2.83492 165.021 2.93442 162.005 2.88466C156.419 2.78516 150.833 2.73541 145.246 2.68566C141.044 2.63591 136.891 2.58616 132.689 2.5364C128.981 2.48665 125.323 2.4369 121.615 2.4369C116.523 2.38715 111.431 2.3374 106.339 2.3374C98.7259 2.3374 91.162 2.3374 83.5487 2.18815C81.6701 2.13839 79.8409 2.1384 77.9623 2.08864C75.1939 1.98914 74.3534 2.58616 73.6119 5.32249C70.003 19.0539 66.4435 32.7356 62.8346 46.467C58.8302 61.7407 54.8258 77.0145 50.8214 92.3379C48.745 100.298 46.5698 108.258 44.6417 116.219C44.5428 116.666 44.6417 116.766 45.0372 116.816C46.1743 116.965 47.3608 116.915 48.5472 116.965C53.046 117.064 57.4954 117.164 61.9941 117.263C65.9985 117.313 70.003 117.363 74.0074 117.363C78.1601 117.413 82.3622 117.462 86.5149 117.462C90.7171 117.512 94.8698 117.562 99.072 117.562C102.879 117.612 106.636 117.661 110.443 117.661C114.348 117.711 118.254 117.761 122.159 117.761C123.741 117.761 125.323 117.761 126.905 117.811C131.058 117.86 135.21 117.96 139.363 118.01C140.945 118.01 142.033 117.363 142.626 115.821C142.774 115.472 142.923 115.074 143.022 114.726C143.417 113.134 143.862 111.592 144.257 110C148.46 93.8802 152.711 77.711 156.913 61.5915C160.819 46.6163 164.823 31.6908 168.729 16.7156C169.965 12.238 171.052 7.76032 172.239 3.18318Z" fill="black"/>
<path d="M27.4866 41.9899C18.4396 41.9899 9.49145 41.9899 0.444456 41.9899C0.839953 41.2436 1.23545 40.5471 1.63095 39.8505C2.91631 37.5122 4.30055 35.2236 5.38817 32.7858C5.98141 31.4425 6.03085 30.0992 5.4376 28.7559C4.00393 25.2733 4.15224 21.8405 5.88254 18.4574C6.42635 17.4126 6.32747 16.3181 5.8331 15.2733C4.59717 12.4872 3.01518 9.85037 1.53207 7.21354C1.13657 6.51701 0.790516 5.82049 0.39502 5.07422C9.44201 5.07422 18.4396 5.07422 27.4866 5.07422C26.7944 6.41751 26.1518 7.6613 25.5091 8.95484C24.8664 10.1986 24.0754 11.3927 23.3833 12.5867C22.7406 13.731 22.1473 14.925 22.3451 16.3181C22.4934 17.3628 22.9383 18.2584 23.581 18.9549C26.3001 21.8902 25.9046 26.1689 23.7293 29.2037C23.4821 29.552 23.235 29.8505 22.9878 30.1987C22.2957 31.144 22.1968 32.139 22.7406 33.1341C23.5316 34.5769 24.372 35.9699 25.1136 37.4625C25.9046 39.0048 26.6956 40.4476 27.4866 41.9899ZM3.75674 7.06428C3.95449 7.41254 4.1028 7.71105 4.25111 7.95981C5.4376 10.0991 6.67353 12.1887 7.66227 14.4275C8.40383 16.1688 8.45327 17.9101 7.5634 19.6017C6.12972 22.3877 6.12972 25.1738 7.31622 28.0594C8.05777 29.9002 8.00833 31.6913 7.26678 33.4823C6.37691 35.5719 5.23986 37.5122 4.15224 39.5023C3.85562 40.0495 3.85562 40.0495 4.44886 40.0495C10.8757 40.0495 17.2531 40.0495 23.6799 40.0495C24.2731 40.0495 24.2237 39.9003 23.9765 39.4525C23.1361 37.761 22.1968 36.0694 21.2575 34.4276C20.071 32.3878 20.2687 30.4972 21.7519 28.7062C22.0979 28.2584 22.444 27.8107 22.6912 27.3132C23.9271 25.0246 24.0754 22.3878 22.1968 20.2484C20.0215 17.7609 19.9227 14.9748 21.4552 12.1389C22.2957 10.6464 23.2844 9.25335 24.026 7.6613C24.3226 7.06428 24.3226 7.06428 23.6305 7.06428C17.2531 7.06428 10.8757 7.06428 4.4983 7.06428C4.25111 7.06428 4.05336 7.06428 3.75674 7.06428Z" fill="black"/>
<path d="M166.208 0.944995C166.257 1.09425 166.307 1.29326 166.307 1.44251C166.356 1.84052 166.356 2.23854 165.911 2.4873C165.565 2.6863 165.169 2.6863 164.873 2.43754C164.527 2.13903 164.428 1.74102 164.675 1.24351C164.724 1.144 164.774 1.0445 164.774 0.895241C165.219 0.696235 165.713 0.745989 166.208 0.944995Z" fill="black"/>
<path d="M175.699 80.1006C182.373 80.1006 189.097 80.1006 195.82 80.1006C195.87 80.2996 195.721 80.4488 195.623 80.6479C194.584 82.5384 193.497 84.3792 192.706 86.3693C191.964 88.1603 192.112 89.9016 193.151 91.5434C193.991 92.8867 194.782 94.3295 195.029 95.9216C195.326 97.8121 194.733 99.5037 193.892 101.145C193.398 102.091 192.755 102.986 192.656 104.131C192.459 105.723 193.002 107.116 193.645 108.509C194.337 109.902 195.079 111.245 195.87 112.588C196.067 112.937 196.018 113.036 195.623 113.036C188.998 113.036 182.324 113.036 175.65 113.036C175.699 112.688 175.897 112.439 176.045 112.141C176.985 110.35 177.875 108.608 178.913 106.867C180 105.076 180.05 103.185 179.457 101.245C178.567 98.2101 178.666 95.2251 179.654 92.2897C180.396 90.1006 180.248 88.1106 178.913 86.1703C177.726 84.3792 176.787 82.3892 175.798 80.4986C175.749 80.3493 175.65 80.2498 175.699 80.1006Z" fill="#F2F2F2"/>
<path d="M179.703 62.4878C179.703 59.2042 182.324 56.5176 185.586 56.5176C188.8 56.5176 191.519 59.2539 191.519 62.4878C191.519 65.7714 188.899 68.4082 185.586 68.4082C182.274 68.4082 179.703 65.7714 179.703 62.4878Z" fill="#F2F2F2"/>
<path d="M191.322 67.7608C192.459 66.4175 193.151 64.925 193.348 63.2334C193.546 61.1438 193.002 59.2533 191.717 57.6115C191.47 57.313 191.519 57.1637 191.865 57.0642C194.09 56.2184 196.166 56.4672 197.946 58.0095C199.874 59.6513 200.467 61.7906 199.825 64.1787C199.182 66.4673 197.6 67.8105 195.326 68.3578C193.942 68.7061 192.607 68.4573 191.322 67.7608Z" fill="#F2F2F2"/>
<path d="M177.776 68.0613C176.144 69.0563 174.118 68.3598 172.98 66.4195C171.745 64.2802 171.596 61.3946 172.684 59.1558C173.771 56.9169 175.798 56.0214 177.726 56.9667C176.738 58.5588 176.144 60.3995 176.194 62.5389C176.194 64.6782 176.738 66.519 177.776 68.0613Z" fill="#F2F2F2"/>
<path d="M34.9521 75.7223C33.0735 74.7273 31.2443 73.7323 29.5635 72.6377C28.8219 72.1402 28.0309 71.6924 27.141 71.5432C25.559 71.1949 24.2242 71.7919 23.0378 72.7372C21.9996 73.5332 20.912 74.1303 19.6266 74.379C17.303 74.8268 15.2761 74.1303 13.4964 72.6875C12.4582 71.8417 11.3212 71.2447 9.93692 71.3442C8.99762 71.3939 8.15719 71.7919 7.36619 72.2895C5.73477 73.2845 4.05391 74.1303 2.27417 74.976C2.42248 68.1103 2.57079 61.2944 2.7191 54.3789C3.1146 54.6277 3.41122 54.7769 3.75728 54.9759C5.38871 55.971 7.02013 56.966 8.75043 57.762C10.7279 58.6575 12.7054 58.8565 14.7818 58.0605C17.6491 56.966 20.3682 57.2147 23.0378 58.7073C24.5703 59.5531 26.2017 59.6028 27.7837 58.9063C30.2061 57.8615 32.4802 56.568 34.8038 55.3242C35.0015 55.2247 35.1993 55.1252 35.4465 54.9759C35.2487 61.9411 35.1004 68.7571 34.9521 75.7223Z" fill="#F2F2F2"/>
<path d="M172.239 3.18284C171.052 7.71023 169.965 12.2376 168.778 16.7153C164.823 31.6905 160.868 46.6159 156.963 61.5911C152.711 77.7106 148.509 93.8799 144.307 109.999C143.911 111.591 143.516 113.134 143.071 114.726C142.972 115.124 142.824 115.472 142.676 115.82C142.132 117.313 140.995 118.009 139.413 118.009C135.26 117.96 131.107 117.86 126.955 117.81C125.373 117.81 123.791 117.761 122.209 117.761C118.303 117.711 114.398 117.661 110.492 117.661C106.685 117.611 102.928 117.562 99.1215 117.562C94.9193 117.512 90.7666 117.462 86.5645 117.462C82.4117 117.412 78.2096 117.363 74.0569 117.363C70.0525 117.313 66.0481 117.313 62.0437 117.263C57.5449 117.213 53.0955 117.114 48.5968 116.965C47.4103 116.915 46.2732 116.965 45.0867 116.815C44.6418 116.766 44.5924 116.666 44.6912 116.218C46.6193 108.208 48.7945 100.298 50.8709 92.3376C54.8753 77.0639 58.8797 61.7901 62.8841 46.4667C66.493 32.7353 70.0525 19.0536 73.6614 5.32216C74.4029 2.58583 75.1939 1.98881 78.0118 2.08831C79.8904 2.13806 81.7196 2.18781 83.5982 2.18781C91.2115 2.28732 98.7754 2.28732 106.389 2.33707C111.481 2.33707 116.573 2.38682 121.665 2.43657C125.373 2.48632 129.031 2.53607 132.739 2.53607C136.941 2.58582 141.094 2.63558 145.296 2.68533C150.882 2.73508 156.469 2.78483 162.055 2.88433C165.071 2.93408 168.037 2.83458 171.052 3.08334C171.399 3.13309 171.794 3.18284 172.239 3.18284ZM86.3173 65.5215C86.2678 66.1683 86.5645 66.5663 87.0588 66.7156C87.7015 66.8648 88.0476 66.5663 88.1959 65.7205C89.0857 61.4419 89.9262 57.1135 90.8161 52.8349C91.2116 50.8946 91.607 48.9045 92.0025 46.9144C92.1509 46.2179 91.9531 45.7701 91.3599 45.5711C90.7172 45.3721 90.3217 45.6707 90.1239 46.5164C89.1352 51.3423 88.1959 56.218 87.2071 61.0439C86.9105 62.5862 86.6139 64.0787 86.3173 65.5215ZM164.626 10.4963C164.626 9.94905 164.28 9.55104 163.736 9.45154C163.241 9.35204 162.895 9.65054 162.747 10.1978C162.104 13.4814 161.412 16.765 160.77 20.0486C160.621 20.6954 160.967 21.2426 161.61 21.3421C162.154 21.4417 162.5 21.1431 162.648 20.4466C163.093 18.1581 163.587 15.8695 164.032 13.5809C164.23 12.5361 164.428 11.4913 164.626 10.4963ZM136.743 104.129C136.743 103.532 136.397 103.134 135.903 103.084C135.309 102.984 135.013 103.233 134.864 103.83C134.222 107.114 133.53 110.397 132.887 113.681C132.739 114.328 133.085 114.825 133.678 114.925C134.222 115.024 134.568 114.726 134.716 114.079C135.161 111.94 135.557 109.85 136.002 107.711C136.298 106.517 136.496 105.323 136.743 104.129ZM81.1264 6.26744C81.1264 5.57092 80.8298 5.1729 80.2859 5.12315C79.7421 5.0734 79.4455 5.32216 79.2972 5.86942C79.1983 6.26743 79.1489 6.66545 79.05 7.01371C78.4568 9.84955 77.913 12.7351 77.3197 15.571C77.1714 16.367 77.4186 16.8148 78.0613 16.9143C78.6545 17.0138 78.9511 16.765 79.1489 15.969C79.5938 13.9292 79.9893 11.8396 80.3848 9.7998C80.6814 8.60576 80.9286 7.36197 81.1264 6.26744ZM158.347 32.6855C158.347 33.3323 158.693 33.7303 159.237 33.78C159.781 33.8298 160.077 33.581 160.226 32.9343C160.868 29.7999 161.511 26.6158 162.104 23.4815C162.302 22.6357 162.055 22.1382 161.412 21.9889C160.819 21.8397 160.473 22.1879 160.275 23.0835C159.83 25.2228 159.385 27.4118 158.99 29.5512C158.743 30.6457 158.545 31.7402 158.347 32.6855ZM92.9418 39.999C93.4362 39.999 93.6834 39.7502 93.7823 39.2527C94.0295 37.9592 94.3261 36.6656 94.5733 35.3223C94.9688 33.3323 95.3643 31.3422 95.7598 29.3521C95.9081 28.7054 95.562 28.2079 94.9688 28.1084C94.425 28.0089 94.0295 28.2576 93.9306 28.9044C93.2879 32.188 92.6452 35.4218 91.9531 38.7054C91.8542 39.4517 92.2497 39.999 92.9418 39.999ZM60.3628 101.492C60.3628 100.895 59.9673 100.447 59.4235 100.447C58.8797 100.397 58.5831 100.696 58.4842 101.243C57.8415 104.527 57.1494 107.761 56.5067 111.044C56.3584 111.691 56.7044 112.238 57.3471 112.338C57.8909 112.437 58.237 112.139 58.3359 111.442C58.8302 109.104 59.2752 106.815 59.7201 104.477C59.9673 103.432 60.165 102.387 60.3628 101.492ZM96.6991 19.4516C96.1553 19.4516 95.7598 19.8496 95.7598 20.3969C95.7598 20.9441 96.1058 21.3422 96.6496 21.3919C97.1934 21.3919 97.5889 20.9939 97.5889 20.4466C97.5889 19.8496 97.1934 19.4516 96.6991 19.4516ZM137.584 96.3177C138.078 96.3177 138.473 95.8699 138.473 95.3227C138.473 94.7754 138.078 94.3774 137.534 94.4271C136.99 94.4271 136.644 94.8251 136.644 95.3724C136.644 95.9197 137.089 96.3177 137.584 96.3177ZM77.3692 24.775C77.3692 24.178 77.0231 23.8297 76.4793 23.8297C75.9355 23.8297 75.54 24.178 75.54 24.7253C75.54 25.3223 75.8366 25.6705 76.4299 25.6705C76.9737 25.6705 77.3197 25.3223 77.3692 24.775ZM61.1538 93.5814C61.6976 93.5814 62.0437 93.2331 62.0437 92.6361C62.0437 92.0888 61.6482 91.6908 61.1538 91.6908C60.61 91.6908 60.2639 92.0888 60.2639 92.6361C60.2639 93.2331 60.61 93.5814 61.1538 93.5814Z" fill="#F2F2F2"/>
<path d="M3.75781 7.06445C4.05444 7.06445 4.25218 7.06445 4.44993 7.06445C10.8273 7.06445 17.2047 7.06445 23.5821 7.06445C24.2742 7.06445 24.2248 7.06445 23.9776 7.66147C23.236 9.25352 22.2473 10.6466 21.4069 12.1391C19.8743 15.0247 19.9732 17.8108 22.1484 20.2486C24.027 22.3879 23.8787 25.0248 22.6428 27.3133C22.3956 27.8108 22.0495 28.2586 21.7035 28.7064C20.2698 30.4974 20.0721 32.4377 21.2091 34.4278C22.1484 36.0696 23.0877 37.7611 23.9282 39.4527C24.1259 39.8507 24.2248 40.0497 23.6315 40.0497C17.2047 40.0497 10.8273 40.0497 4.4005 40.0497C3.80725 40.0497 3.80725 40.0497 4.10387 39.5024C5.19149 37.5124 6.32854 35.5721 7.21841 33.4825C7.95997 31.6915 8.0094 29.8507 7.26785 28.0596C6.08136 25.174 6.13079 22.3879 7.51503 19.6018C8.4049 17.9103 8.35546 16.169 7.61391 14.4277C6.62517 12.1889 5.38924 10.0993 4.20275 7.95998C4.10387 7.66147 3.95556 7.41271 3.75781 7.06445Z" fill="#F2F2F2"/>
<path d="M86.3174 65.5222C86.614 64.0794 86.9106 62.5868 87.2072 61.0445C88.196 56.2186 89.1353 51.343 90.124 46.5171C90.3218 45.6713 90.6678 45.3231 91.36 45.5718C91.9038 45.7708 92.151 46.2186 92.0026 46.9151C91.6072 48.9052 91.2117 50.8455 90.8162 52.8356C89.9263 57.1142 89.0859 61.4426 88.196 65.7212C88.0477 66.567 87.6522 66.8655 87.0589 66.7162C86.5646 66.567 86.3174 66.169 86.3174 65.5222Z" fill="black"/>
<path d="M164.626 10.4972C164.428 11.4923 164.23 12.5371 164.032 13.5321C163.587 15.8207 163.093 18.1092 162.648 20.3978C162.5 21.0943 162.153 21.3928 161.61 21.2933C161.016 21.1938 160.67 20.6963 160.769 19.9998C161.412 16.7162 162.104 13.4326 162.747 10.149C162.846 9.60171 163.241 9.35295 163.736 9.4027C164.28 9.55196 164.626 9.94997 164.626 10.4972Z" fill="black"/>
<path d="M136.744 104.13C136.497 105.275 136.299 106.469 136.052 107.712C135.607 109.852 135.211 111.941 134.766 114.081C134.618 114.777 134.272 115.026 133.728 114.926C133.134 114.827 132.788 114.329 132.937 113.683C133.579 110.399 134.272 107.115 134.914 103.832C135.013 103.235 135.359 103.036 135.953 103.085C136.398 103.185 136.744 103.583 136.744 104.13Z" fill="black"/>
<path d="M81.1268 6.26769C80.929 7.36223 80.6818 8.60602 80.4346 9.80006C80.039 11.8399 79.594 13.9294 79.1984 15.9692C79.0501 16.7653 78.7534 17.014 78.1106 16.9145C77.4678 16.7653 77.1711 16.3175 77.3689 15.5712C77.9128 12.6856 78.5062 9.8498 79.0995 7.01397C79.1984 6.61595 79.2479 6.21794 79.3468 5.86968C79.4457 5.32241 79.7918 5.07365 80.3357 5.12341C80.7807 5.17316 81.1268 5.57117 81.1268 6.26769Z" fill="black"/>
<path d="M158.347 32.686C158.545 31.691 158.743 30.5964 158.99 29.5019C159.435 27.3626 159.88 25.1735 160.276 23.0342C160.474 22.1387 160.82 21.7904 161.413 21.9397C162.056 22.0889 162.303 22.5864 162.105 23.4322C161.462 26.5666 160.82 29.7507 160.226 32.885C160.078 33.5318 159.781 33.8303 159.237 33.7308C158.694 33.7308 158.347 33.3328 158.347 32.686Z" fill="black"/>
<path d="M92.9424 40.0003C92.2501 40.0003 91.8546 39.5028 92.0029 38.7566C92.6457 35.473 93.2885 32.2391 93.9808 28.9555C94.1291 28.3585 94.4752 28.06 95.0191 28.1595C95.6125 28.259 95.9586 28.7565 95.8102 29.4033C95.4147 31.3933 95.0191 33.3834 94.6235 35.3735C94.3763 36.667 94.0796 37.9605 93.8324 39.3038C93.7335 39.7516 93.4863 40.0003 92.9424 40.0003Z" fill="black"/>
<path d="M60.3634 101.492C60.1656 102.437 59.9678 103.432 59.77 104.477C59.325 106.815 58.8306 109.104 58.3855 111.442C58.2372 112.139 57.8911 112.437 57.3966 112.338C56.7538 112.238 56.4077 111.741 56.556 111.044C57.1988 107.761 57.8911 104.527 58.5339 101.243C58.6328 100.746 58.9294 100.397 59.4734 100.447C59.9184 100.447 60.3634 100.895 60.3634 101.492Z" fill="black"/>
<path d="M96.6995 19.4524C97.2434 19.4524 97.5895 19.8504 97.5895 20.4475C97.5895 20.9947 97.1939 21.3927 96.65 21.3927C96.1061 21.3927 95.76 20.945 95.76 20.3977C95.76 19.8007 96.1556 19.4027 96.6995 19.4524Z" fill="black"/>
<path d="M137.584 96.3183C137.089 96.3183 136.644 95.9203 136.644 95.373C136.644 94.8257 136.99 94.4277 137.534 94.4277C138.078 94.4277 138.474 94.776 138.474 95.3233C138.474 95.8705 138.078 96.2686 137.584 96.3183Z" fill="black"/>
<path d="M77.3693 24.7756C77.3693 25.3229 76.9737 25.7209 76.4298 25.6712C75.8859 25.6712 75.5398 25.2732 75.5398 24.7259C75.5398 24.1786 75.9354 23.7806 76.4793 23.8304C77.0232 23.8304 77.3693 24.1786 77.3693 24.7756Z" fill="black"/>
<path d="M61.1538 93.582C60.6099 93.582 60.2144 93.2337 60.2144 92.6367C60.2144 92.0894 60.6099 91.6914 61.1044 91.6914C61.6483 91.6914 61.9944 92.0894 61.9944 92.6367C62.0933 93.2337 61.7472 93.582 61.1538 93.582Z" fill="black"/>
</svg>
