<?xml version="1.0" standalone="no"?>
<!DOCTYPE svg PUBLIC "-//W3C//DTD SVG 20010904//EN"
 "http://www.w3.org/TR/2001/REC-SVG-20010904/DTD/svg10.dtd">
<svg version="1.0" xmlns="http://www.w3.org/2000/svg"
 width="700.000000pt" height="700.000000pt" viewBox="0 0 700.000000 700.000000"
 preserveAspectRatio="xMidYMid meet">
<metadata>
Created by potrace 1.14, written by Peter Selinger 2001-2017
</metadata>
<g transform="translate(0.000000,700.000000) scale(0.100000,-0.100000)"
fill="#000000" stroke="none">
<path d="M5565 6989 c-16 -5 -39 -11 -50 -13 -54 -12 -116 -37 -230 -91 -219
-105 -335 -135 -495 -131 -63 2 -126 7 -140 10 -14 4 -36 9 -50 12 -14 3 -79
21 -145 41 -205 61 -361 54 -525 -23 -239 -113 -392 -356 -392 -625 0 -110 25
-201 107 -389 85 -197 116 -320 121 -480 3 -137 -12 -231 -60 -370 -15 -41
-30 -97 -33 -125 -8 -58 -8 -190 0 -255 27 -220 225 -440 475 -527 67 -24 92
-27 197 -27 109 0 127 3 189 28 37 16 100 47 140 70 174 103 316 141 521 140
146 0 208 -10 362 -58 171 -54 291 -54 449 -1 294 99 498 442 448 755 -4 25
-9 50 -10 55 -2 6 -7 24 -10 40 -4 17 -36 86 -71 153 -60 117 -113 253 -128
332 -4 19 -8 91 -10 160 -4 126 8 227 40 336 24 82 65 283 60 297 -2 6 -6 43
-10 81 -8 97 -22 150 -62 231 -44 90 -71 126 -148 200 -123 117 -255 175 -415
180 -52 2 -108 -1 -125 -6z"/>
<path d="M1445 6923 c-38 -8 -106 -31 -150 -52 -187 -90 -284 -214 -354 -455
-59 -201 -123 -321 -243 -451 -81 -88 -154 -143 -295 -222 -64 -35 -135 -79
-157 -96 -100 -76 -187 -210 -223 -347 -21 -80 -24 -308 -4 -390 22 -91 84
-209 146 -277 102 -112 188 -163 385 -228 307 -100 451 -229 620 -550 61 -115
94 -161 164 -228 52 -50 156 -117 181 -117 8 0 16 -4 19 -9 16 -26 274 -53
356 -37 14 3 37 7 53 10 71 12 165 55 237 109 122 90 201 216 265 420 51 165
96 258 172 359 86 114 212 216 358 290 147 75 226 139 292 238 36 53 80 162
89 216 3 22 8 42 10 46 3 4 7 53 9 109 10 221 -44 374 -180 512 -67 68 -167
136 -253 173 -31 14 -66 29 -77 33 -11 5 -47 19 -80 31 -164 59 -294 148 -377
257 -25 32 -97 137 -160 233 -131 199 -185 263 -272 324 -147 103 -335 138
-531 99z"/>
<path d="M5070 3824 c-177 -38 -296 -111 -399 -245 -36 -46 -88 -160 -122
-264 -103 -321 -254 -508 -534 -660 -184 -100 -292 -208 -352 -350 -113 -268
-56 -593 138 -785 81 -80 154 -122 300 -171 152 -51 233 -88 322 -147 139 -93
274 -254 346 -415 83 -185 208 -309 376 -372 84 -32 139 -40 260 -39 145 1
248 34 370 117 121 82 205 205 266 388 113 340 278 537 601 714 145 80 234
172 290 300 86 195 64 503 -49 694 -50 85 -141 172 -224 216 -37 19 -120 53
-184 76 -197 67 -303 129 -425 246 -92 87 -158 179 -230 323 -102 202 -207
301 -380 360 -82 28 -272 36 -370 14z"/>
<path d="M2395 3017 c-76 -22 -110 -37 -270 -119 -72 -38 -195 -82 -252 -93
-127 -22 -184 -24 -293 -10 -86 11 -114 17 -179 40 -132 47 -193 58 -317 57
-103 0 -176 -18 -268 -64 -142 -72 -258 -190 -325 -331 -95 -200 -84 -408 34
-666 95 -209 136 -366 136 -528 1 -142 -12 -213 -67 -380 -22 -66 -27 -97 -27
-198 -1 -66 2 -142 6 -169 29 -183 195 -384 394 -476 186 -87 369 -86 533 2
41 23 102 55 135 73 73 39 196 80 290 95 69 12 250 15 283 6 9 -3 38 -7 64
-11 26 -3 87 -17 135 -31 48 -14 113 -32 143 -41 211 -56 483 46 643 242 48
58 120 194 131 245 3 14 8 36 12 50 13 50 13 225 0 285 -19 81 -35 123 -94
240 -96 188 -122 287 -127 468 -2 115 7 188 40 317 52 202 68 337 50 423 -3
15 -7 39 -10 54 -8 38 -40 125 -58 159 -8 16 -24 45 -33 64 -28 53 -150 172
-229 222 -106 68 -172 89 -295 94 -88 3 -118 0 -185 -19z"/>
</g>
</svg>
