<svg width="32" height="32" viewBox="0 0 32 32" fill="none" xmlns="http://www.w3.org/2000/svg">
<g clip-path="url(#clip0)">
<rect width="32" height="32" rx="8" fill="#FFC700" fill-opacity="0.3"/>
<path d="M34.8053 10.4508C35.8763 9.83888 36.9302 9.2439 37.9841 8.63194C38.1031 8.56395 38.2561 8.49595 38.3241 8.37696C38.3921 8.27496 38.3921 8.10499 38.4261 7.969C38.3071 7.952 38.1711 7.884 38.0521 7.918C37.6102 8.07099 37.2022 8.27498 36.7602 8.39397C35.3153 8.81895 33.8874 9.29491 32.3575 9.3799C31.7285 9.4139 31.1166 9.37991 30.4876 9.32892C29.6886 9.26092 29.4337 8.75095 29.7566 7.969C30.0456 7.25504 30.3856 6.55809 30.6746 5.84413C30.7256 5.72514 30.7256 5.52114 30.6576 5.45315C30.5896 5.38515 30.3856 5.38516 30.2836 5.43615C29.8586 5.60614 29.4507 5.82713 29.0257 6.01412C27.6828 6.59209 26.7818 6.18411 25.9999 4.99419C25.4899 4.21223 25.2859 3.31128 25.0819 2.41033C24.776 1.05042 24.47 -0.309497 24.215 -1.66941C24.062 -2.48536 23.994 -3.31831 23.892 -4.13426C23.858 -4.47424 23.841 -4.81422 23.807 -5.1372C23.79 -5.23919 23.688 -5.40918 23.637 -5.40918C23.535 -5.40918 23.382 -5.32419 23.331 -5.2222C23.246 -5.03521 23.2121 -4.81421 23.1951 -4.59322C23.0081 -3.11431 22.8211 -1.63541 22.6341 -0.156502C22.4301 1.4584 22.2261 3.09029 21.6651 4.63719C21.6142 4.77318 21.5462 4.92618 21.4612 5.04517C21.1212 5.52114 20.8832 5.55515 20.4412 5.18117C19.6423 4.48421 18.8943 3.73626 18.3674 2.80132C18.3334 2.73332 18.2994 2.64833 18.2484 2.61433C18.1464 2.54634 17.9934 2.47833 17.9084 2.49533C17.8404 2.51233 17.7554 2.69932 17.7554 2.81831C17.7894 3.37928 17.8574 3.95724 17.8744 4.51821C17.8914 5.13017 17.8574 5.72512 17.8234 6.33708C17.8064 6.59207 17.5514 6.83006 17.2964 6.81306C16.7185 6.74507 16.1235 6.69407 15.5625 6.55808C14.0666 6.2181 12.6727 5.55515 11.2788 4.90919C10.0039 4.31423 8.76295 3.66825 7.72601 2.68231C7.60702 2.56332 7.45403 2.42734 7.30104 2.64832C7.14805 2.85231 7.25004 3.00529 7.42003 3.10729C8.42297 3.83824 9.32391 4.67119 10.1909 5.55514C11.5168 6.91505 12.6727 8.41096 13.5737 10.0769C13.9476 10.7568 14.0836 11.0968 13.0637 11.3518C12.1627 11.5728 11.2618 11.7598 10.3439 11.5728C10.2419 11.5558 10.1059 11.6918 9.96987 11.7428C10.0209 11.8448 10.0549 11.9808 10.1229 12.0487C10.9728 12.7287 11.8228 13.3916 12.6727 14.0716C13.0467 14.3776 13.0127 14.6326 12.6557 14.9726C11.8568 15.6865 10.9048 16.1625 9.96987 16.6894C9.03493 17.2164 8.08299 17.6924 7.13105 18.1514C6.3491 18.5253 5.55015 18.8823 4.7512 19.2223C4.58121 19.2903 4.41122 19.3923 4.51321 19.5963C4.56421 19.6983 4.7682 19.7493 4.90419 19.7493C5.85613 19.6813 6.79107 19.5623 7.74301 19.5283C9.28992 19.4773 10.8368 19.4773 12.3837 19.4263C12.9617 19.4093 13.5057 19.5113 14.0326 19.7153C14.5086 19.8853 14.7636 20.2762 14.7976 20.7692C14.8486 21.3812 14.6276 21.9421 14.4236 22.5031C14.3386 22.7581 14.1856 22.9791 14.1176 23.234C14.0836 23.37 14.1516 23.54 14.1856 23.693C14.3386 23.659 14.4916 23.659 14.6276 23.591C15.2225 23.302 15.8175 22.9791 16.4125 22.7071C16.7864 22.5371 17.2964 22.6901 17.5684 23.132C18.0444 23.88 18.2994 24.7129 18.5203 25.5459C18.8433 26.7868 19.0133 28.0617 19.0813 29.3537C19.1153 29.8296 19.0813 30.3226 19.0813 30.7986C19.0983 31.1555 19.1153 31.5125 19.1663 31.8695C19.1833 31.9545 19.3193 32.0905 19.3703 32.0735C19.4893 32.0395 19.6423 31.9715 19.6763 31.8695C19.8463 31.4615 19.9823 31.0196 20.1352 30.6116C20.6962 29.1837 21.2572 27.7388 21.8351 26.3279C22.0221 25.8519 22.2771 25.3929 22.5321 24.9339C22.8551 24.305 23.2121 24.118 23.875 24.288C24.657 24.509 25.4219 24.8149 25.9319 25.5289C26.0509 25.6989 26.1189 25.8859 26.2719 26.0219C26.3569 26.1069 26.5268 26.1069 26.6458 26.1409C26.6628 26.0049 26.7138 25.8689 26.6798 25.7499C26.5608 25.2569 26.4248 24.781 26.3059 24.305C26.2379 24.033 26.2379 23.761 26.1869 23.489C26.0679 22.8941 26.1869 22.7241 26.8668 22.8261C27.8188 22.979 28.7027 23.319 29.5527 23.727C31.0826 24.492 32.6125 25.2739 34.1084 26.0899C34.4653 26.2769 34.7033 26.6508 35.0263 26.9228C35.1283 27.0078 35.2643 27.0758 35.3833 27.0928C35.4513 27.0928 35.5703 26.9908 35.6043 26.9058C35.6383 26.8548 35.5873 26.7018 35.5363 26.6678C34.6183 26.0049 34.0574 25.0359 33.4454 24.118C32.8844 23.285 32.2895 22.4691 31.7285 21.6191C31.1676 20.7692 30.6916 19.8682 30.3856 18.8993C30.2156 18.3553 30.3856 17.8454 30.8616 17.4884C31.7625 16.7915 32.7995 16.6555 33.8704 16.6385C33.9384 16.6385 34.0234 16.6555 34.0744 16.6385C34.1764 16.5875 34.2954 16.5195 34.3294 16.4345C34.3464 16.3665 34.2444 16.2135 34.1594 16.1795C33.8024 15.9925 33.4114 15.8565 33.0714 15.6355C32.5785 15.3125 32.1195 14.9726 31.6605 14.5986C31.5755 14.5136 31.5245 14.2756 31.5755 14.1396C31.9325 13.0687 32.5955 12.2187 33.4284 11.5048C33.9044 11.0968 34.3634 10.7908 34.8053 10.4508ZM10.2759 5.01118C10.2929 4.97718 10.3099 4.94319 10.3269 4.90919C10.4798 4.92619 10.6328 4.92617 10.7518 4.97717C11.6188 5.36815 12.4687 5.81012 13.3357 6.1671C13.9646 6.42208 14.6106 6.64307 15.2565 6.81306C15.8855 6.96605 16.5145 7.05105 17.1604 7.15304C17.3984 7.18704 17.6364 7.17005 17.8744 7.13605C18.0954 7.11905 18.2144 6.93206 18.2314 6.72807C18.2824 5.84412 18.2994 4.96019 18.3334 4.05924C18.3334 3.97425 18.3674 3.83826 18.4353 3.80426C18.5033 3.77026 18.6393 3.80424 18.6903 3.87224C18.8263 4.00823 18.9453 4.16124 19.0813 4.31423C19.5403 4.7732 19.9823 5.26617 20.4922 5.67414C20.6452 5.81013 20.9682 5.82713 21.1722 5.75914C21.5972 5.60615 21.9201 5.26617 22.0561 4.8242C22.2601 4.19524 22.4301 3.56626 22.5661 2.9373C22.7021 2.35933 22.7701 1.76438 22.8551 1.18642C22.9231 0.727447 22.9741 0.251464 23.0421 -0.207508C23.0931 -0.564485 23.1271 -0.938446 23.1781 -1.29542C23.246 -1.83939 23.331 -2.36636 23.399 -2.91032C23.45 -2.91032 23.484 -2.91032 23.535 -2.91032C23.603 -2.58734 23.688 -2.26437 23.756 -1.94139C24.096 -0.139503 24.385 1.67938 24.8949 3.43027C25.2179 4.5012 25.6429 5.47016 26.5268 6.18411C27.2238 6.72808 28.0058 6.96605 28.8727 6.74506C29.2127 6.66007 29.5357 6.50709 29.9436 6.3541C29.8586 6.62608 29.8246 6.83007 29.7566 7.03406C29.6207 7.45903 29.4167 7.86699 29.3147 8.29196C29.1617 8.95492 29.3147 9.56688 30.0796 9.73687C30.6066 9.83887 31.1506 9.92388 31.6775 9.92388C33.0204 9.92388 34.3294 9.60089 35.6383 9.29491C35.7573 9.26091 35.8933 9.2439 36.0123 9.22691C36.0293 9.2609 36.0293 9.2949 36.0463 9.3119C35.9613 9.3799 35.8933 9.44791 35.8083 9.49891C34.7033 10.1279 33.5984 10.7568 32.7315 11.7088C32.0685 12.4397 31.5075 13.2387 31.2355 14.2246C31.1676 14.4966 31.1506 14.7516 31.4225 14.9386C31.8815 15.2615 32.3405 15.5845 32.7995 15.9245C32.8844 15.9925 32.9524 16.0945 33.0204 16.1795C32.9354 16.2305 32.8504 16.3155 32.7655 16.3495C32.2725 16.5195 31.7455 16.6045 31.2696 16.8254C30.1306 17.4034 29.8246 18.1174 30.1476 19.2563C30.3006 19.8172 30.5556 20.3782 30.8786 20.8712C31.7625 22.2481 32.6975 23.608 33.5984 24.9679C33.6494 25.0359 33.6494 25.1379 33.6834 25.2229C33.5814 25.2229 33.4624 25.2739 33.3944 25.2229C33.1394 25.0869 32.9014 24.8829 32.6295 24.7639C31.2186 24.101 29.8076 23.438 28.3967 22.8091C27.7508 22.5201 27.0708 22.4011 26.3739 22.3671C26.0339 22.3501 25.8129 22.5541 25.7959 22.8941C25.7789 23.064 25.8129 23.234 25.8469 23.404C25.9149 23.846 26.1359 24.288 25.9659 24.6959C25.2689 24.407 24.589 24.101 23.909 23.812C23.246 23.54 22.7871 23.676 22.4301 24.322C22.0561 25.0019 21.7161 25.6989 21.3932 26.4129C21.0022 27.2968 20.6452 28.1977 20.2712 29.0987C20.0842 29.5746 19.8973 30.0506 19.6933 30.5096C19.6593 30.5096 19.6083 30.5096 19.5743 30.5096C19.5573 30.4076 19.5063 30.3056 19.5063 30.2036C19.4043 29.0647 19.3703 27.9088 19.2003 26.7698C18.9963 25.4439 18.7073 24.118 18.0104 22.9281C17.6194 22.2481 16.9564 22.0271 16.2595 22.3671C15.9025 22.5371 15.5625 22.7071 15.1885 22.8601C15.0866 22.9111 14.9506 22.8771 14.8316 22.8771C14.8316 22.7581 14.7806 22.6051 14.8316 22.5031C15.0866 21.9761 15.2225 21.4321 15.2565 20.8542C15.2905 20.4292 15.1885 20.0552 14.9166 19.7323C14.4066 19.1203 13.6926 19.0353 12.9957 19.0183C11.9927 19.0183 10.9898 19.0863 9.98687 19.1203C9.5109 19.1373 9.03493 19.0863 8.55896 19.0863C8.032 19.0863 7.50503 19.1203 6.97806 19.1033C6.79107 19.1033 6.60408 19.0353 6.4171 19.0013C6.50209 18.8823 6.57009 18.8483 6.65508 18.8143C8.16799 18.0324 9.68089 17.2504 11.1938 16.4515C11.8398 16.1115 12.4857 15.7885 12.9957 15.2615C13.6586 14.5816 13.6926 14.3266 13.1147 13.7826C12.7407 13.4087 12.3157 13.1027 11.9078 12.7797C11.6528 12.5757 11.3978 12.3887 11.0748 12.1507C11.2958 12.0827 11.4488 12.0317 11.6188 11.9977C12.3327 11.8278 13.0807 11.6918 13.7776 11.4708C14.3726 11.2668 14.4916 10.8928 14.2366 10.3148C14.1856 10.1958 14.1176 10.0939 14.0496 9.99186C13.8796 9.70288 13.6926 9.43089 13.5397 9.14191C13.0127 8.13897 12.3327 7.25504 11.5678 6.4391C11.1258 5.94613 10.7008 5.48715 10.2759 5.01118Z" fill="black" stroke="black" stroke-width="0.4" stroke-miterlimit="10"/>
<path d="M10.2761 5.01176C10.7011 5.48773 11.1091 5.96369 11.5511 6.42266C12.316 7.23861 12.979 8.13956 13.5229 9.1255C13.6759 9.41448 13.8629 9.68646 14.0329 9.97544C14.1009 10.0774 14.1689 10.1794 14.2199 10.2984C14.4749 10.8934 14.3559 11.2674 13.7609 11.4544C13.064 11.6924 12.316 11.8113 11.6021 11.9813C11.4491 12.0153 11.2961 12.0663 11.0581 12.1343C11.3811 12.3893 11.6361 12.5763 11.891 12.7633C12.299 13.0863 12.724 13.3922 13.098 13.7662C13.6589 14.3272 13.6249 14.5652 12.979 15.2451C12.469 15.7721 11.8231 16.0951 11.1771 16.435C9.66419 17.217 8.15128 17.999 6.63837 18.7979C6.57038 18.8319 6.48539 18.8659 6.40039 18.9849C6.58738 19.0189 6.77437 19.0869 6.96135 19.0869C7.48832 19.0869 8.01529 19.0699 8.54226 19.0699C9.01823 19.0699 9.4942 19.1039 9.97017 19.1039C10.9731 19.0869 11.976 19.0019 12.979 19.0019C13.6929 19.0019 14.3899 19.1039 14.8999 19.7158C15.1718 20.0388 15.2738 20.4298 15.2398 20.8378C15.2058 21.4157 15.0699 21.9597 14.8149 22.4867C14.7639 22.5887 14.8149 22.7247 14.8149 22.8607C14.9339 22.8607 15.0698 22.8947 15.1718 22.8437C15.5288 22.6907 15.8858 22.5207 16.2428 22.3507C16.9397 22.0107 17.6027 22.2487 17.9937 22.9116C18.6906 24.1016 18.9796 25.4275 19.1836 26.7534C19.3536 27.8923 19.3876 29.0313 19.4896 30.1872C19.5066 30.2892 19.5406 30.3912 19.5576 30.4932C19.5916 30.4932 19.6426 30.4932 19.6766 30.4932C19.8636 30.0172 20.0505 29.5412 20.2545 29.0823C20.6285 28.1813 20.9685 27.2804 21.3765 26.3964C21.6994 25.6825 22.0394 24.9855 22.4134 24.3056C22.7704 23.6596 23.2123 23.5236 23.8923 23.7956C24.5893 24.0846 25.2692 24.3736 25.9492 24.6795C26.1192 24.2716 25.8982 23.8296 25.8302 23.3876C25.7962 23.2176 25.7622 23.0476 25.7792 22.8776C25.7962 22.5377 26.0342 22.3337 26.3571 22.3507C27.0541 22.3847 27.7341 22.5037 28.38 22.7927C29.7909 23.4386 31.2018 24.0846 32.6128 24.7475C32.8847 24.8665 33.1057 25.0705 33.3777 25.2065C33.4457 25.2405 33.5647 25.2065 33.6667 25.2065C33.6327 25.1215 33.6327 25.0195 33.5817 24.9515C32.6808 23.5916 31.7458 22.2487 30.8619 20.8548C30.5559 20.3618 30.3009 19.8008 30.1309 19.2399C29.8079 18.1009 30.1139 17.37 31.2528 16.809C31.7118 16.571 32.2388 16.486 32.7488 16.3331C32.8337 16.2991 32.9187 16.2311 33.0037 16.1631C32.9357 16.0781 32.8677 15.9761 32.7827 15.9081C32.3238 15.5681 31.8648 15.2451 31.4058 14.9221C31.1339 14.7351 31.1509 14.4802 31.2188 14.2082C31.4738 13.2222 32.0518 12.4403 32.7148 11.6923C33.5817 10.7234 34.6866 10.0944 35.7916 9.48247C35.8766 9.43147 35.9616 9.36348 36.0295 9.29549C36.0125 9.26149 36.0125 9.22749 35.9955 9.21049C35.8766 9.22749 35.7406 9.24449 35.6216 9.27849C34.3127 9.60147 33.0037 9.90744 31.6608 9.90744C31.1339 9.90744 30.5899 9.83945 30.0629 9.72046C29.298 9.56747 29.145 8.93851 29.298 8.27555C29.4 7.85058 29.5869 7.4256 29.7399 7.01762C29.8079 6.81364 29.8589 6.60965 29.9269 6.33767C29.519 6.49066 29.196 6.64366 28.856 6.72865C27.989 6.94964 27.2071 6.71164 26.5101 6.16768C25.6262 5.47072 25.2012 4.48479 24.8782 3.41386C24.3513 1.64597 24.0793 -0.155917 23.7393 -1.95781C23.6713 -2.28079 23.5863 -2.60378 23.5183 -2.92676C23.4673 -2.92676 23.4333 -2.92676 23.3823 -2.92676C23.3143 -2.38279 23.2293 -1.85582 23.1613 -1.31186C23.1103 -0.95488 23.0764 -0.580899 23.0254 -0.223922C22.9744 0.23505 22.9064 0.711033 22.8384 1.17C22.7534 1.76497 22.6684 2.34292 22.5494 2.92088C22.4134 3.56684 22.2264 4.1958 22.0394 4.80776C21.9034 5.24973 21.5804 5.58971 21.1555 5.7427C20.9515 5.8107 20.6285 5.7767 20.4755 5.65771C19.9825 5.23273 19.5236 4.75676 19.0646 4.29779C18.9286 4.1618 18.8266 3.99182 18.6736 3.85582C18.6056 3.80483 18.4866 3.77083 18.4186 3.78783C18.3676 3.82182 18.3336 3.94082 18.3166 4.04281C18.2826 4.92675 18.2487 5.81071 18.2147 6.71166C18.1977 6.89864 18.0787 7.08564 17.8577 7.11963C17.6197 7.15363 17.3817 7.17063 17.1437 7.13663C16.5148 7.05163 15.8688 6.96664 15.2398 6.79665C14.5939 6.62666 13.9479 6.42267 13.319 6.15068C12.435 5.77671 11.6021 5.35173 10.7351 4.96076C10.5991 4.90976 10.4461 4.90976 10.3101 4.89276C10.3101 4.94375 10.2931 4.97776 10.2761 5.01176Z" fill="black" fill-opacity="0.2" stroke="black" stroke-width="0.4" stroke-miterlimit="10"/>
<path d="M-0.39953 11.76C0.263429 11.76 0.977384 11.811 1.69134 11.811C2.3033 11.811 2.93226 11.862 3.54423 11.879C4.46217 11.913 5.38011 11.93 6.28105 11.964C6.36605 11.964 6.43405 11.93 6.45104 11.845C6.46804 11.743 6.36605 11.709 6.29805 11.726C5.97507 11.777 5.65209 11.709 5.34611 11.709C4.68315 11.709 4.0202 11.675 3.35724 11.675C2.67728 11.675 2.01432 11.624 1.33436 11.641C0.89239 11.641 0.467417 11.59 0.0424433 11.573C-0.127546 11.556 -0.314535 11.573 -0.484524 11.573C-0.535521 11.573 -0.620515 11.539 -0.637514 11.641C-0.654513 11.743 -0.586518 11.743 -0.501523 11.743C-0.501523 11.76 -0.467525 11.76 -0.39953 11.76Z" fill="black" fill-opacity="0.2"/>
<path d="M-0.399261 11.9801C0.722669 11.9971 1.8616 12.0141 2.98353 12.0651C3.54449 12.0991 4.12246 12.1161 4.70042 12.1331C4.9724 12.1501 5.26139 12.1501 5.53337 12.1671C5.66936 12.1671 5.80535 12.1841 5.94134 12.1841C6.07734 12.1841 6.24732 12.2181 6.38332 12.1841C6.77429 12.0991 6.7063 11.5382 6.29832 11.5382C5.75436 11.5552 5.21039 11.5211 4.64942 11.5041C3.5105 11.4701 2.37157 11.4532 1.21564 11.4532C0.620676 11.4532 0.0257123 11.3682 -0.569251 11.3682C-0.773238 11.3682 -0.943227 11.5381 -0.89223 11.7591C-0.807235 11.9801 -0.58625 11.9631 -0.399261 11.9801C-0.127278 12.0141 -0.127278 11.5891 -0.399261 11.5551C-0.433259 11.5551 -0.535253 11.5212 -0.569251 11.5382C-0.569251 11.6231 -0.552251 11.7081 -0.552251 11.7761C-0.535252 11.7761 -0.535253 11.7761 -0.518254 11.7761C-0.484256 11.7931 -0.399261 11.7761 -0.365263 11.7761C-0.127278 11.7761 0.110707 11.7931 0.331693 11.8101C0.790665 11.8441 1.23264 11.8441 1.69161 11.8611C2.62655 11.8611 3.56149 11.8951 4.49643 11.9121C4.95541 11.9291 5.41438 11.9461 5.89035 11.9631C5.99234 11.9631 6.11133 11.9631 6.21333 11.9631C6.23033 11.9631 6.33232 11.9631 6.33232 11.9461C6.33232 11.9121 6.31532 11.8781 6.31532 11.8441C6.33232 11.7591 6.29832 11.7251 6.21333 11.7421C6.12833 11.7081 5.97534 11.7421 5.87335 11.7251C5.75436 11.7251 5.61836 11.7251 5.49937 11.7081C4.56443 11.6741 3.62949 11.6571 2.71155 11.6061C2.18458 11.5721 1.65761 11.5891 1.13064 11.5721C0.620676 11.5551 0.127706 11.5382 -0.382262 11.5382C-0.671244 11.5552 -0.671244 11.9801 -0.399261 11.9801Z" fill="black"/>
<path d="M2.23582 16.6891C2.5928 16.6211 2.93277 16.5531 3.27275 16.4851C4.1907 16.3151 5.10864 16.1281 6.04358 15.9581C6.57055 15.8561 7.09751 15.7541 7.62448 15.6521C7.69248 15.6351 7.76047 15.6351 7.72647 15.5671C7.69248 15.5161 7.64148 15.4991 7.55649 15.5161C6.84253 15.6521 6.11158 15.8051 5.38062 15.9411C4.37768 16.1111 3.39174 16.3491 2.37181 16.5021C2.30381 16.5191 2.25282 16.5361 2.18482 16.5531C2.11682 16.5701 2.04883 16.5701 2.04883 16.6211C2.08283 16.6721 2.15082 16.6891 2.23582 16.6891Z" fill="black" fill-opacity="0.2"/>
<path d="M2.28661 16.8931C3.20455 16.7062 4.12249 16.5361 5.04044 16.3662C5.48241 16.2812 5.92438 16.1962 6.36635 16.1112C6.80833 16.0262 7.2673 15.9582 7.69227 15.8562C8.01525 15.7712 7.99825 15.3462 7.65827 15.3122C7.47128 15.2952 7.2333 15.3632 7.04631 15.4142C6.82533 15.4652 6.58734 15.4992 6.36635 15.5502C5.44841 15.7372 4.53047 15.8902 3.61253 16.0772C3.13656 16.1792 2.64359 16.2302 2.15062 16.3492C1.99763 16.3832 1.82764 16.4342 1.82764 16.6382C1.84464 16.8421 2.03162 16.9271 2.20161 16.9271C2.4736 16.9271 2.4736 16.5022 2.20161 16.5022C2.21861 16.5362 2.23561 16.5702 2.25261 16.6041C2.21861 16.6721 2.18461 16.7231 2.15062 16.7911C2.20161 16.7571 2.32061 16.7571 2.3886 16.7401C2.49059 16.7231 2.60959 16.7061 2.71158 16.6891C2.94957 16.6551 3.20455 16.6042 3.44254 16.5532C3.91851 16.4682 4.37748 16.3662 4.85345 16.2642C5.31242 16.1792 5.77139 16.0942 6.23036 16.0092C6.46835 15.9582 6.70633 15.9072 6.94432 15.8732C7.04631 15.8562 7.1653 15.8222 7.2673 15.8052C7.33529 15.7882 7.40329 15.7712 7.47128 15.7712C7.50528 15.7712 7.52228 15.7542 7.55628 15.7542C7.62428 15.7542 7.62428 15.7202 7.52228 15.6862C7.53928 15.6182 7.55628 15.5502 7.57328 15.4822C7.60728 15.4482 7.59028 15.4822 7.55628 15.4822C7.48828 15.4822 7.42029 15.5162 7.35229 15.5162C7.2503 15.5332 7.14831 15.5502 7.02931 15.5842C6.80833 15.6352 6.58734 15.6692 6.34936 15.7202C5.87338 15.8052 5.41441 15.9072 4.93844 15.9922C4.0035 16.1622 3.08556 16.3492 2.15062 16.5361C1.91263 16.5361 2.01462 16.9441 2.28661 16.8931Z" fill="black"/>
<path d="M11.1089 2.22119C11.1939 2.23819 11.2279 2.18719 11.2619 2.15319C11.3299 2.0852 11.2449 2.0342 11.1939 2.0002C10.8369 1.67722 10.4799 1.33725 10.106 1.01427C9.375 0.351313 8.64404 -0.311658 7.89609 -0.974617C7.86209 -1.00861 7.84509 -1.02561 7.81109 -1.05961C7.7431 -1.11061 7.6921 -1.09361 7.64111 -1.05961C7.57311 -1.00861 7.60711 -0.957609 7.6581 -0.923611C8.04908 -0.583633 8.44006 -0.226663 8.81403 0.130315C9.256 0.555288 9.74897 0.946268 10.1739 1.38824C10.4459 1.66022 10.7519 1.91522 11.0579 2.1872C11.0749 2.2042 11.0919 2.20419 11.1089 2.22119Z" fill="black" fill-opacity="0.2"/>
<path d="M11.1092 2.44319C11.4152 2.44319 11.6192 2.1202 11.3812 1.88221C11.1092 1.61023 10.8032 1.35525 10.5312 1.10027C9.93627 0.5563 9.34131 0.029333 8.74634 -0.514633C8.59335 -0.650625 8.44036 -0.78662 8.30437 -0.922612C8.18538 -1.0416 8.04939 -1.21159 7.8964 -1.27959C7.60741 -1.41558 7.26743 -1.07561 7.48842 -0.803628C7.60741 -0.667636 7.7604 -0.548631 7.8964 -0.429638C8.04939 -0.293647 8.20238 -0.157651 8.35537 -0.0216596C8.62735 0.233325 8.91633 0.488309 9.18831 0.743293C9.4943 1.01528 9.80028 1.30425 10.1063 1.61023C10.2592 1.76323 10.4122 1.89922 10.5652 2.03521C10.7012 2.1542 10.8542 2.30718 11.0072 2.40918C11.2452 2.54517 11.4492 2.1882 11.2282 2.03521C11.0752 1.95021 10.9392 1.79723 10.8202 1.67823C10.6842 1.55924 10.5482 1.42324 10.4122 1.30425C10.1233 1.03226 9.83428 0.760292 9.54529 0.488309C9.25631 0.233324 8.96733 -0.038671 8.67835 -0.310654C8.54235 -0.446646 8.38936 -0.565626 8.25337 -0.701617C8.18538 -0.769613 8.10038 -0.837621 8.03239 -0.905617C7.96439 -0.956614 7.8454 -1.0416 7.8114 -1.1096C7.8114 -1.0586 7.8284 -1.0076 7.8284 -0.939607C7.7944 -0.922608 7.7604 -0.905621 7.7434 -0.888622C7.7604 -0.871623 7.7774 -0.854612 7.7944 -0.854612C7.8114 -0.820614 7.8624 -0.78662 7.8964 -0.752622C7.98139 -0.684627 8.04939 -0.616623 8.13438 -0.531628C8.27037 -0.412635 8.40636 -0.276652 8.55935 -0.15766C8.84834 0.114324 9.15432 0.386298 9.4433 0.641282C9.73228 0.896266 10.0213 1.16827 10.3102 1.42325C10.4462 1.54224 10.5822 1.67823 10.7182 1.79722C10.8032 1.86521 10.8712 1.93322 10.9562 2.01821C10.9902 2.03521 11.1262 2.13719 11.1262 2.15419C11.1262 2.1032 11.1432 2.0522 11.1432 1.9842C10.8372 2.0182 10.8372 2.44319 11.1092 2.44319Z" fill="black"/>
<path d="M10.3101 22.0781C9.30713 22.2991 7.38625 23.625 6.84229 24.203C7.96422 23.455 9.17114 22.8261 10.3101 22.0781Z" fill="black" fill-opacity="0.2"/>
<path d="M10.2422 21.8737C9.5452 22.0436 8.88224 22.4516 8.28727 22.8256C7.72631 23.1826 7.14835 23.5736 6.67238 24.0495C6.50239 24.2195 6.72337 24.5255 6.92736 24.3895C8.06629 23.6416 9.25621 23.0126 10.3951 22.2646C10.6161 22.1117 10.4121 21.7547 10.1742 21.8907C9.03523 22.6216 7.8453 23.2676 6.70637 24.0155C6.79137 24.1345 6.87636 24.2365 6.96136 24.3555C7.40333 23.8965 7.9473 23.5396 8.47426 23.1996C9.03523 22.8426 9.66419 22.4516 10.3271 22.2816C10.6331 22.2306 10.5141 21.8227 10.2422 21.8737Z" fill="black"/>
<path d="M16.4639 27.2979C15.7499 28.0288 14.883 30.1707 14.73 30.9356C15.2569 29.7117 15.9199 28.5218 16.4639 27.2979Z" fill="black" fill-opacity="0.2"/>
<path d="M16.3106 27.1434C15.8176 27.6534 15.4946 28.3504 15.2056 28.9963C14.9337 29.5913 14.6617 30.2372 14.5257 30.8832C14.4747 31.1042 14.8147 31.2742 14.9167 31.0532C15.4436 29.8123 16.1066 28.6393 16.6506 27.4154C16.7525 27.1604 16.3956 26.9565 16.2766 27.1944C15.7326 28.4184 15.0867 29.6083 14.5427 30.8322C14.6787 30.8832 14.7977 30.9342 14.9337 31.0022C15.0527 30.3903 15.3076 29.7783 15.5626 29.2173C15.8346 28.6054 16.1406 27.9424 16.6166 27.4494C16.8035 27.2454 16.4976 26.9395 16.3106 27.1434Z" fill="black"/>
<path d="M3.15332 6.52389C4.30925 6.91486 5.44818 7.30582 6.60411 7.6968C6.6211 7.6628 6.6381 7.6288 6.6551 7.59481C5.53317 7.15283 4.34325 6.82985 3.20432 6.42188C3.17032 6.45587 3.17032 6.48989 3.15332 6.52389Z" fill="black" fill-opacity="0.2"/>
<path d="M3.08543 6.72863C4.24136 7.1196 5.38029 7.51058 6.53622 7.90156C6.62121 7.93555 6.7402 7.88456 6.7742 7.79957C6.7912 7.76557 6.8082 7.73155 6.8252 7.69756C6.8932 7.56157 6.8252 7.44259 6.70621 7.39159C5.56728 6.94962 4.39435 6.62663 3.25542 6.21866C3.17043 6.18466 3.05143 6.23565 3.01744 6.32065C3.00044 6.35464 2.98344 6.38864 2.96644 6.40564C2.84745 6.64363 3.22142 6.86462 3.34042 6.62664C3.35742 6.59264 3.37441 6.55864 3.39141 6.54164C3.30642 6.57564 3.23842 6.60963 3.15343 6.64363C4.29236 7.05161 5.46528 7.37459 6.60421 7.81656C6.57021 7.71457 6.51922 7.61257 6.48522 7.51057C6.46822 7.54457 6.45122 7.57856 6.43422 7.61256C6.51922 7.57856 6.58721 7.54457 6.67221 7.51057C5.51628 7.1196 4.37735 6.72862 3.22142 6.33764C2.94944 6.23565 2.83045 6.64363 3.08543 6.72863Z" fill="black"/>
<path d="M11.3472 28.2665C11.4152 28.2665 11.4322 28.2155 11.4492 28.1815C11.8912 27.5186 12.2992 26.8386 12.7751 26.1927C12.8261 26.1247 12.8601 26.0737 12.7751 26.0227C12.6732 25.9717 12.6392 26.0227 12.5882 26.0907C12.1972 26.7026 11.8062 27.2976 11.4152 27.9095C11.3812 27.9775 11.3132 28.0285 11.2792 28.0965C11.1942 28.1985 11.2452 28.2495 11.3472 28.2665Z" fill="black" fill-opacity="0.2"/>
<path d="M11.3984 28.4694C11.5854 28.4184 11.6874 28.1804 11.7894 28.0274C11.9253 27.8404 12.0443 27.6364 12.1633 27.4324C12.4183 27.0415 12.6733 26.6675 12.9453 26.2935C13.0813 26.1065 13.0133 25.8685 12.7753 25.8005C12.5373 25.7325 12.4183 25.9365 12.2993 26.1065C12.0443 26.5145 11.7894 26.9055 11.5174 27.3134C11.3814 27.5344 11.2454 27.7554 11.0924 27.9594C11.0244 28.0444 10.9734 28.1464 11.0074 28.2654C11.0414 28.3844 11.1434 28.4524 11.2624 28.4694C11.3814 28.4864 11.4834 28.4354 11.5174 28.3164C11.5514 28.2144 11.4834 28.0784 11.3644 28.0614C11.2964 28.0444 11.3474 28.0614 11.3474 28.0614C11.3644 28.0954 11.3814 28.1294 11.3984 28.1634C11.3814 28.1974 11.3814 28.2144 11.3984 28.2314C11.4154 28.2144 11.4324 28.1804 11.4494 28.1634C11.4834 28.1294 11.5174 28.0784 11.5344 28.0444C11.5854 27.9594 11.6534 27.8744 11.7044 27.7894C11.8234 27.6024 11.9593 27.3984 12.0783 27.2114C12.1973 27.0245 12.3163 26.8375 12.4353 26.6505C12.5033 26.5655 12.5543 26.4635 12.6223 26.3785C12.6563 26.3445 12.7073 26.2765 12.7243 26.2255C12.7243 26.2085 12.7413 26.1915 12.7413 26.2085C12.6733 26.2595 12.6393 26.2595 12.6053 26.2085C12.5883 26.1745 12.5883 26.1405 12.5713 26.1065C12.5883 26.0555 12.5883 26.0555 12.5713 26.0895C12.5543 26.1065 12.5373 26.1235 12.5203 26.1405C12.4863 26.1915 12.4523 26.2255 12.4183 26.2765C12.3503 26.3615 12.2823 26.4635 12.2143 26.5485C12.0953 26.7185 11.9763 26.9055 11.8573 27.0755C11.7384 27.2454 11.6364 27.4324 11.5174 27.6024C11.4494 27.7044 11.3984 27.7894 11.3304 27.8914C11.2964 27.9424 11.2624 27.9934 11.2284 28.0274C11.2114 28.0444 11.2114 28.0614 11.1944 28.0784C11.1774 28.1124 11.1774 28.1124 11.2284 28.0614C11.0244 28.1294 11.1264 28.5374 11.3984 28.4694Z" fill="black"/>
</g>
<defs>
<clipPath id="clip0">
<rect width="32" height="32" rx="8" fill="white"/>
</clipPath>
</defs>
</svg>
